HIERARCHY
ROOT Hips
{
	OFFSET 0.000000 0.000000 0.000000 
	CHANNELS 6 Xposition Yposition Zposition Zrotation Yrotation Xrotation
	JOINT LeftUpLeg
	{
		OFFSET 1.363060 -1.794630 0.839290 
		CHANNELS 3 Zrotation Yrotation Xrotation
		JOINT LeftLeg
		{
			OFFSET 2.448110 -6.726130 0.000000 
			CHANNELS 3 Zrotation Yrotation Xrotation
			JOINT LeftFoot
			{
				OFFSET 2.562200 -7.039590 0.000000 
				CHANNELS 3 Zrotation Yrotation Xrotation
				JOINT LeftToeBase
				{
					OFFSET 0.157640 -0.433110 2.322550 
					CHANNELS 3 Zrotation Yrotation Xrotation
					End Site
					{
						OFFSET 0.000000 0.000000 0.000000 
					}
				}
			}
		}
	}
	JOINT RightUpLeg
	{
		OFFSET -1.305520 -1.794630 0.839290 
		CHANNELS 3 Zrotation Yrotation Xrotation
		JOINT RightLeg
		{
			OFFSET -2.542530 -6.985550 0.000000 
			CHANNELS 3 Zrotation Yrotation Xrotation
			JOINT RightFoot
			{
				OFFSET -2.568260 -7.056230 0.000000 
				CHANNELS 3 Zrotation Yrotation Xrotation
				JOINT RightToeBase
				{
					OFFSET -0.164730 -0.452590 2.363150 
					CHANNELS 3 Zrotation Yrotation Xrotation
					End Site
					{
						OFFSET 0.000000 0.000000 0.000000 
					}
				}
			}
		}
	}
	JOINT Spine
	{
		OFFSET 0.028270 2.035590 -0.193380 
		CHANNELS 3 Zrotation Yrotation Xrotation
		JOINT Spine1
		{
			OFFSET 0.056720 2.048850 -0.042750 
			CHANNELS 3 Zrotation Yrotation Xrotation
			JOINT Neck1
			{
				OFFSET -0.054170 1.746240 0.172020 
				CHANNELS 3 Zrotation Yrotation Xrotation
				JOINT Head
				{
					OFFSET 0.104070 1.761360 -0.123970 
					CHANNELS 3 Zrotation Yrotation Xrotation
					End Site
					{
						OFFSET 0.000000 0.000000 0.000000 
					}
				}
			}
			JOINT LeftArm
			{
				OFFSET 3.362410 1.200890 -0.311210 
				CHANNELS 3 Zrotation Yrotation Xrotation
				JOINT LeftForeArm
				{
					OFFSET 4.983000 -0.000000 -0.000000 
					CHANNELS 3 Zrotation Yrotation Xrotation
					JOINT LeftHand
					{
						OFFSET 3.483560 -0.000000 -0.000000 
						CHANNELS 3 Zrotation Yrotation Xrotation
						JOINT LeftHandIndex1
						{
							OFFSET 0.715260 -0.000000 -0.000000 
							CHANNELS 3 Zrotation Yrotation Xrotation
							End Site
							{
								OFFSET 0.000000 0.000000 0.000000 
							}
						}
					}
				}
			}
			JOINT RightArm
			{
				OFFSET -3.136600 1.374050 -0.404650 
				CHANNELS 3 Zrotation Yrotation Xrotation
				JOINT RightForeArm
				{
					OFFSET -5.241900 -0.000000 -0.000000 
					CHANNELS 3 Zrotation Yrotation Xrotation
					JOINT RightHand
					{
						OFFSET -3.444170 -0.000000 -0.000000 
						CHANNELS 3 Zrotation Yrotation Xrotation
						JOINT RightHandIndex1
						{
							OFFSET -0.622530 -0.000000 -0.000000 
							CHANNELS 3 Zrotation Yrotation Xrotation
							End Site
							{
								OFFSET 0.000000 0.000000 0.000000 
							}
						}
					}
				}
			}
		}
	}
}
MOTION
Frames: 13
Frame Time: 0.041667
9.379413 17.435153 -35.685794 2.073151 7.177254 7.529097 -14.629659 11.014824 -1.804661 -0.148008 7.291774 24.906827 -0.754617 7.457537 21.480995 1.546600 -7.849800 -22.258800 15.409676 6.961014 -28.218449 1.065112 -10.691578 26.189420 0.475674 -5.452691 10.161579 -0.471100 4.402200 -12.211000 1.450210 -3.935648 -5.390537 6.634547 -2.591922 6.459300 6.546712 -1.568640 7.020102 6.113400 -0.846000 10.157000 -84.472515 -5.597110 47.078074 16.374904 -25.857939 -5.029557 0.101161 1.099847 -9.348096 -7.125000 0.000000 0.000000 79.198606 -10.136422 31.372316 -11.350717 17.703001 -3.166111 3.019322 1.458007 -6.131032 7.125000 0.000000 0.000000 
9.346802 17.451459 -35.508174 1.934076 7.078296 7.585018 -14.452776 11.325248 -3.094229 0.492651 8.255763 27.575416 -0.784108 8.099979 22.845693 1.649900 -8.095200 -23.003500 15.817022 6.943782 -27.901958 1.023924 -10.724613 26.450876 0.408255 -5.080707 9.634378 -0.503700 4.549500 -12.628100 1.424513 -3.723009 -5.383931 6.439723 -2.459405 6.581596 6.542982 -1.590429 7.095548 6.075000 -0.843500 10.298000 -84.567276 -4.991375 47.263628 15.645814 -25.038933 -4.675280 0.057547 1.118660 -8.776723 -7.125000 0.000000 0.000000 79.276243 -9.784570 31.486371 -11.493868 17.833755 -3.177214 2.999243 1.270557 -6.477707 7.125000 0.000000 0.000000 
9.315931 17.477004 -35.334684 1.446881 7.012237 7.542626 -13.992414 11.516246 -4.473323 1.206907 9.234865 30.422546 -0.816023 8.538712 23.540980 1.616800 -8.017600 -22.767500 16.602935 6.721251 -27.432937 1.076637 -10.608035 26.297778 0.338245 -4.789215 9.519414 -0.526600 4.650200 -12.913600 1.288843 -3.494495 -5.277468 4.924235 -2.258548 7.240753 6.404365 -1.757999 7.078428 5.783200 -0.823900 10.350600 -83.332360 -4.684088 47.677900 14.991948 -24.227478 -4.367022 -0.012384 1.138733 -8.277223 -7.125000 0.000000 0.000000 80.367223 -8.698252 31.197627 -11.376594 17.805786 -3.162409 3.000100 1.241087 -6.244290 7.125000 0.000000 0.000000 
9.292560 17.495918 -35.163260 0.969199 7.100258 7.355470 -13.531116 11.199853 -5.497953 1.959123 10.176928 33.170436 -1.054957 9.557142 23.882230 1.464700 -7.648500 -21.651500 17.437908 6.253158 -26.874675 1.143341 -10.446560 26.083687 0.172900 -4.198293 9.547313 -0.442800 4.269800 -11.837000 1.285369 -3.416000 -5.270480 4.614934 -2.168094 7.153272 6.444997 -1.952845 6.927044 5.848300 -0.902000 10.289100 -83.139069 -4.044755 47.682406 14.336056 -23.448364 -4.063421 0.024354 1.117284 -7.777641 -7.125000 0.000000 0.000000 80.420867 -8.511621 31.825839 -11.665113 18.149436 -3.243955 2.959048 1.250713 -6.752171 7.125000 0.000000 0.000000 
9.271580 17.513419 -34.994336 0.302120 7.079023 7.126914 -12.856583 10.869182 -6.592696 2.826448 11.123926 35.979819 -1.444216 11.088414 24.091023 1.119800 -6.722000 -18.894300 18.458378 6.180196 -26.060976 1.242202 -10.208529 25.676388 0.108182 -3.874328 9.246879 -0.373600 3.925600 -10.867400 1.442079 -3.351958 -5.353165 5.585696 -2.135061 6.493821 6.607273 -1.930836 6.808696 6.066200 -0.941700 10.214300 -84.385262 -3.032834 46.856639 13.605011 -22.672665 -3.763984 0.128110 1.109996 -6.607842 -7.125000 0.000000 0.000000 79.332296 -8.991988 33.240629 -12.284265 18.737280 -3.410306 2.903533 1.301711 -7.985880 7.125000 0.000000 0.000000 
9.247557 17.542986 -34.826934 -0.332447 6.796583 7.011305 -12.272747 10.955522 -7.965270 3.744245 12.030423 38.819104 -1.769335 12.386073 24.171520 0.895700 -6.032100 -16.877500 19.402780 6.380934 -25.181785 1.354031 -9.943539 25.168159 0.079993 -3.676183 8.948942 -0.332400 3.705500 -10.249500 1.548619 -3.158274 -5.416969 6.143761 -2.013462 5.977778 6.669257 -1.759963 6.734007 6.039700 -0.871300 10.110000 -85.212583 -1.989055 46.021518 12.985182 -22.027887 -3.529194 0.209488 1.113013 -5.426157 -7.125000 0.000000 0.000000 78.581036 -9.269939 34.485460 -12.828375 19.265117 -3.600079 2.903997 1.398752 -9.005078 7.125000 0.000000 0.000000 
9.223968 17.572988 -34.665402 -0.610354 6.618785 6.911625 -12.076089 10.989615 -9.323307 4.646674 12.892552 41.631778 -2.088223 13.526970 23.929697 0.675300 -5.254800 -14.636600 19.943827 6.245966 -24.362026 1.465121 -9.654209 24.580214 0.038036 -3.501434 8.948303 -0.293700 3.485100 -9.632300 1.553980 -2.973238 -5.450391 6.076644 -1.874338 5.617951 6.740745 -1.731378 6.630611 6.049100 -0.845200 10.013100 -85.286200 -1.142130 45.797192 12.380473 -21.314932 -3.288091 0.251111 1.113155 -4.657319 -7.125000 0.000000 0.000000 78.404830 -9.287297 35.393821 -13.223672 19.689436 -3.760193 2.920731 1.462570 -9.756173 7.125000 0.000000 0.000000 
9.207445 17.590924 -34.508109 -1.073854 6.656579 6.794546 -11.729057 10.642902 -10.533836 5.507429 13.674091 44.297663 -2.553045 14.717681 22.839672 0.434100 -4.228300 -11.719700 20.707768 5.787553 -23.684822 1.566816 -9.388241 24.045454 -0.023414 -3.246955 8.863851 -0.302400 3.535500 -9.773400 1.563611 -2.866879 -5.435355 5.795408 -1.775899 5.639163 6.699034 -1.788627 6.567011 6.009200 -0.862600 9.977800 -85.274084 -0.627403 45.473227 11.692460 -20.486426 -3.033919 0.281519 1.144173 -3.489786 -7.125000 0.000000 0.000000 78.269401 -8.902134 35.955238 -13.448250 19.953305 -3.855162 2.926828 1.494352 -10.203990 7.125000 0.000000 0.000000 
9.191792 17.606686 -34.349729 -1.667518 6.561257 6.704633 -11.305569 10.351969 -11.682154 6.295325 14.346421 46.752041 -3.089928 15.768062 21.024719 0.274300 -3.369000 -9.307900 21.642255 5.330193 -23.121120 1.650303 -9.171587 23.638637 -0.147366 -2.767958 8.816519 -0.348100 3.791100 -10.489600 1.590265 -2.697599 -5.406613 5.588484 -1.651473 5.785081 6.537686 -1.824717 6.566014 5.846400 -0.879400 9.971600 -85.328308 -0.078829 44.925895 11.181233 -19.903783 -2.853270 0.349846 1.122201 -1.990890 -7.125000 0.000000 0.000000 77.902948 -8.512094 36.593492 -13.696809 20.256395 -3.974932 2.939944 1.588028 -10.722751 7.125000 0.000000 0.000000 
9.172117 17.634188 -34.194175 -1.863364 6.374368 6.645319 -11.296113 10.144891 -12.876424 6.988090 14.947858 48.987229 -3.593487 16.697227 19.132450 0.177000 -2.710300 -7.473200 22.107650 4.975112 -22.557945 1.709172 -8.981170 23.303898 -0.270616 -2.288907 8.709756 -0.363300 3.871900 -10.716600 1.586933 -2.499737 -5.404871 5.550060 -1.521694 5.673793 6.615543 -1.919182 6.473591 5.898300 -0.912900 9.915300 -85.368756 0.642951 44.383910 10.793438 -19.463205 -2.710302 0.439639 1.045313 -0.562227 -7.125000 0.000000 0.000000 77.546038 -8.360446 37.381410 -14.157009 20.762759 -4.152294 2.914888 1.658741 -11.362132 7.125000 0.000000 0.000000 
9.156899 17.662124 -34.036991 -1.622134 6.154851 6.596043 -11.756388 9.844434 -13.970708 7.562748 15.485591 51.013318 -4.217202 17.745442 16.487159 0.247400 -3.200500 -8.837500 22.031169 4.687834 -21.931158 1.749591 -8.802318 23.001239 -0.374475 -1.882126 8.468248 -0.319900 3.635300 -10.052900 1.559665 -2.370914 -5.384159 5.618363 -1.446447 5.697751 6.833706 -1.997537 6.369200 6.103700 -0.930400 9.882800 -85.415794 1.139445 43.570231 10.302288 -18.901145 -2.547936 0.531580 0.991424 0.993757 -7.125000 0.000000 0.000000 77.221112 -8.050082 38.169256 -14.637588 21.275656 -4.325163 2.872508 1.699953 -11.779922 7.125000 0.000000 0.000000 
9.142659 17.680821 -33.878938 -1.297673 5.850669 6.601927 -12.302615 9.587947 -15.018020 8.024735 15.947746 52.831937 -4.769471 18.494223 13.460104 0.466500 -4.381000 -12.151100 21.828738 4.546640 -21.274337 1.789838 -8.625212 22.690040 -0.466889 -1.532551 8.311546 -0.239300 3.148500 -8.692400 1.533055 -2.225294 -5.339030 5.785398 -1.371718 5.930404 6.907477 -2.154819 6.231623 6.219600 -1.000000 9.794100 -85.475079 1.619099 42.939759 9.816542 -18.381710 -2.389930 0.716690 0.813180 1.889585 -7.125000 0.000000 0.000000 76.770147 -7.606049 39.010757 -14.994326 21.704171 -4.532646 2.891555 1.933974 -12.301084 7.125000 0.000000 0.000000 
9.125157 17.699736 -33.729689 -1.148365 5.586505 6.716969 -12.646167 9.305694 -16.238240 8.438013 16.362182 54.413817 -5.056678 18.822181 11.443195 0.410700 -4.113800 -11.396900 21.835037 4.398616 -20.781705 1.836298 -8.453378 22.364937 -0.538939 -1.259849 8.261495 -0.230800 3.092000 -8.534900 1.496446 -1.992011 -5.318021 5.803973 -1.232108 6.030671 6.860892 -2.388753 6.082294 6.205100 -1.110000 9.687500 -85.377097 2.303953 42.925154 9.440875 -18.002210 -2.279631 0.970887 0.514775 2.028689 -7.125000 0.000000 0.000000 76.514921 -7.192600 39.370790 -15.264901 22.060888 -4.757516 2.915085 2.256760 -12.573661 7.125000 0.000000 0.000000 
